<?xml version="1.0" encoding="UTF-8" standalone="no"?><!DOCTYPE svg PUBLIC "-//W3C//DTD SVG 1.1//EN" "http://www.w3.org/Graphics/SVG/1.1/DTD/svg11.dtd"><svg width="100%" height="100%" viewBox="0 0 195 46" version="1.1" xmlns="http://www.w3.org/2000/svg" xmlns:xlink="http://www.w3.org/1999/xlink" xml:space="preserve" xmlns:serif="http://www.serif.com/" style="fill-rule:evenodd;clip-rule:evenodd;stroke-linejoin:round;stroke-miterlimit:1.41421;"><g><path d="M174.639,33.95l0,-19.875l-5.8,0l-4.707,12.432l-4.657,-12.432l-5.839,0l0,19.875l4.136,0l0,-14.326l5.462,14.326l1.794,0l5.463,-14.326l0,14.326l4.148,0Zm19.95,0l0,-3.721l-9.584,0l0,-4.536l9.376,0l0,-3.721l-9.376,0l0,-4.176l9.584,0l0,-3.721l-13.707,0l0,19.875l13.707,0Z" style="fill:#fff;"/><path d="M62.041,34.311c5.202,0 7.491,-2.868 7.491,-6.176c0,-7.391 -11.276,-5.096 -11.276,-8.818c0,-1.454 1.301,-2.468 3.251,-2.468c1.04,-0.017 2.073,0.177 3.04,0.57c0.966,0.394 1.847,0.98 2.592,1.725l1.911,-2.668c-0.964,-0.935 -2.1,-1.664 -3.341,-2.145c-1.241,-0.481 -2.563,-0.704 -3.889,-0.656c-4.253,0.066 -7.049,2.574 -7.049,5.909c0,7.337 11.275,4.669 11.275,8.884c0,1.334 -1.079,2.748 -3.901,2.748c-1.155,-0.004 -2.296,-0.252 -3.352,-0.73c-1.057,-0.477 -2.005,-1.173 -2.787,-2.045l-1.873,2.708c1.034,1.059 2.27,1.886 3.631,2.43c1.361,0.545 2.817,0.793 4.277,0.732Zm29.912,-0.361l0,-19.875l-3.434,0l0,8.11l-10.079,0l0,-8.11l-3.394,0l0,19.875l3.394,0l0,-8.697l10.079,0l0,8.697l3.434,0Zm15.605,0.361c1.323,0.039 2.638,-0.201 3.866,-0.705c1.228,-0.504 2.341,-1.263 3.27,-2.227c0.93,-0.965 1.656,-2.116 2.133,-3.381c0.478,-1.265 0.695,-2.617 0.642,-3.972c0.052,-1.355 -0.168,-2.706 -0.646,-3.97c-0.478,-1.264 -1.204,-2.414 -2.133,-3.378c-0.929,-0.965 -2.041,-1.723 -3.268,-2.228c-1.228,-0.505 -2.542,-0.746 -3.864,-0.709c-1.322,-0.041 -2.638,0.197 -3.867,0.701c-1.228,0.504 -2.342,1.262 -3.272,2.227c-0.93,0.965 -1.655,2.116 -2.133,3.382c-0.476,1.266 -0.694,2.619 -0.638,3.975c-0.058,1.356 0.159,2.71 0.634,3.977c0.476,1.267 1.203,2.419 2.132,3.384c0.931,0.966 2.046,1.724 3.275,2.227c1.229,0.503 2.547,0.74 3.869,0.697Zm0,-3.095c-3.901,0 -6.424,-3.108 -6.424,-7.19c0,-4.082 2.497,-7.177 6.424,-7.177c3.928,0 6.399,3.068 6.399,7.177c0,4.109 -2.601,7.19 -6.424,7.19l0.025,0Zm33.437,2.734l5.475,-19.875l-3.771,0l-3.785,15.287l-4.006,-15.287l-2.743,0l-3.902,15.287l-3.772,-15.287l-3.849,0l5.527,19.875l3.629,0l3.771,-14.673l3.746,14.673l3.68,0Z" style="fill:#5698ff;"/></g><g><path d="M21.709,8.135l-11.687,6.281l0,-5.393l11.687,-6.281l4.377,2.348l0.64,0.349l16.691,8.977l0,5.393l-5.017,-2.697l-16.691,-8.977Z" style="fill:#5698ff;"/><path d="M5.017,17.112l0,16.786l-5.017,0l0,-19.482l5.017,-2.697l0,5.393Z" style="fill:#5698ff;"/><path d="M5.017,38.572l28.378,0l0,4.674l-33.395,0l0,-4.674l5.017,0Z" style="fill:#fff;"/><path d="M38.4,38.572l0,-16.067l5.017,2.697l0,18.044l-5.017,0l0,-4.674Z" style="fill:#fff;"/><path d="M24.35,14.955l9.045,4.854l0,14.089l-23.373,0l0,-14.089l11.687,-6.281l2.641,1.427Zm1.435,6.989l-3.28,0l0,3.056l3.28,0l0,-3.056Zm-3.28,4.393l0,3.056l3.28,0l0,-3.056l-3.28,0Zm-1.424,-4.382l-3.28,0l0,3.056l3.28,0l0,-3.067l0,0.011Zm-3.28,4.382l0,3.056l3.28,0l0,-3.056l-3.28,0Z" style="fill:#5698ff;"/></g></svg>